<?xml version="1.0" encoding="UTF-8" standalone="no"?>
<svg
   xmlns:dc="http://purl.org/dc/elements/1.1/"
   xmlns:cc="http://creativecommons.org/ns#"
   xmlns:rdf="http://www.w3.org/1999/02/22-rdf-syntax-ns#"
   xmlns:svg="http://www.w3.org/2000/svg"
   xmlns="http://www.w3.org/2000/svg"
   xmlns:sodipodi="http://sodipodi.sourceforge.net/DTD/sodipodi-0.dtd"
   xmlns:inkscape="http://www.inkscape.org/namespaces/inkscape"
   sodipodi:docname="wiska308_rev2.svg"
   inkscape:version="1.0 (4035a4f, 2020-05-01)"
   id="svg8"
   version="1.1"
   viewBox="0 0 210 297"
   height="297mm"
   width="210mm">
  <defs
     id="defs2" />
  <sodipodi:namedview
     inkscape:window-maximized="0"
     inkscape:window-y="0"
     inkscape:window-x="0"
     inkscape:window-height="1050"
     inkscape:window-width="1680"
     showgrid="false"
     inkscape:document-rotation="0"
     inkscape:current-layer="layer1"
     inkscape:document-units="mm"
     inkscape:cy="902.84475"
     inkscape:cx="402.82374"
     inkscape:zoom="1.7210741"
     inkscape:pageshadow="2"
     inkscape:pageopacity="0.0"
     borderopacity="1.0"
     bordercolor="#666666"
     pagecolor="#ffffff"
     id="base" />
  <metadata
     id="metadata5">
    <rdf:RDF>
      <cc:Work
         rdf:about="">
        <dc:format>image/svg+xml</dc:format>
        <dc:type
           rdf:resource="http://purl.org/dc/dcmitype/StillImage" />
        <dc:title></dc:title>
      </cc:Work>
    </rdf:RDF>
  </metadata>
  <g
     id="layer1"
     inkscape:groupmode="layer"
     inkscape:label="Laag 1">
    <path
       d="m 129.08154,32.540804 v 6.499863 a 3.4999998,3.4999998 0 0 1 -3.50004,3.500043 h -6.49987 v 15.749942 h 1.99988 v 2.999816 h -1.99988 v 6.250266 h 1.99988 v 3.999756 h -1.99988 v 6.250265 h 1.99988 v 2.999817 h -1.99988 v 15.749942 h 6.49987 a 3.4999998,3.4999998 0 0 1 3.50004,3.500046 v 6.49986 h 15.74994 v -1.99988 h 2.99982 v 1.99988 h 6.25026 v -1.99988 h 3.99976 v 1.99988 h 6.25026 v -1.99988 h 2.99982 v 1.99988 h 15.74994 v -6.49986 a 3.4999998,3.4999998 0 0 1 3.50005,-3.500046 h 6.49986 V 80.790572 h -1.99988 v -2.999817 h 1.99988 V 71.54049 h -1.99988 v -3.999756 h 1.99988 v -6.250266 h -1.99988 v -2.999816 h 1.99988 V 42.54071 h -6.49986 a 3.4999998,3.4999998 0 0 1 -3.50005,-3.500043 V 32.540804 H 167.3314 v 1.999877 h -2.99982 v -1.999877 h -6.25026 v 1.999877 h -3.99976 v -1.999877 h -6.25026 v 1.999877 h -2.99982 v -1.999877 z"
       style="fill:#ff0000;stroke-width:0.0924774"
       id="rect833" />
    <rect
       style="fill:#ff0000;stroke-width:0.0924774"
       id="rect905"
       width="74"
       height="74"
       x="62.581039"
       y="118.81776" />
    <rect
       style="fill:#ffff00;stroke-width:0.0833184"
       id="rect907"
       width="4"
       height="2"
       x="97.581047"
       y="118.81776" />
    <rect
       y="190.81776"
       x="97.581047"
       height="2"
       width="4"
       id="rect909"
       style="fill:#ffff00;stroke-width:0.0833184" />
    <rect
       style="fill:#ffff00;stroke-width:0.0635058"
       id="rect911"
       width="2"
       height="4"
       x="62.581039"
       y="153.81776" />
    <rect
       y="153.81776"
       x="134.58104"
       height="4"
       width="2"
       id="rect913"
       style="fill:#ffff00;stroke-width:0.0635058" />
    <rect
       y="118.81776"
       x="107.83105"
       height="2"
       width="3"
       id="rect915"
       style="fill:#ffff00;stroke-width:0.0721558" />
    <rect
       style="fill:#ffff00;stroke-width:0.0721558"
       id="rect917"
       width="3"
       height="2"
       x="88.331047"
       y="118.81776" />
    <g
       transform="translate(7.1608482,81.698769)"
       id="g923">
      <rect
         y="109.119"
         x="100.6702"
         height="2"
         width="3"
         id="rect919"
         style="fill:#ffff00;stroke-width:0.0721558" />
      <rect
         style="fill:#ffff00;stroke-width:0.0721558"
         id="rect921"
         width="3"
         height="2"
         x="81.170197"
         y="109.119" />
    </g>
    <g
       id="g929"
       transform="rotate(90,55.151238,118.54881)">
      <rect
         style="fill:#ffff00;stroke-width:0.0721558"
         id="rect925"
         width="3"
         height="2"
         x="100.6702"
         y="109.119" />
      <rect
         y="109.119"
         x="81.170197"
         height="2"
         width="3"
         id="rect927"
         style="fill:#ffff00;stroke-width:0.0721558" />
    </g>
    <g
       transform="rotate(90,91.15124,154.54881)"
       id="g935">
      <rect
         y="109.119"
         x="100.6702"
         height="2"
         width="3"
         id="rect931"
         style="fill:#ffff00;stroke-width:0.0721558" />
      <rect
         style="fill:#ffff00;stroke-width:0.0721558"
         id="rect933"
         width="3"
         height="2"
         x="81.170197"
         y="109.119" />
    </g>
    <path
       id="path937"
       style="fill:#ffff00;stroke-width:0.0640733"
       d="m 62.581041,118.81777 v 6.49986 3.50004 h 6.49986 a 3.4999998,3.4999998 0 0 0 3.500046,-3.50004 v -6.49986 h -3.500046 z" />
    <path
       d="m 136.58104,118.81777 v 6.49986 3.50004 h -6.49986 a 3.4999998,3.4999998 0 0 1 -3.50004,-3.50004 v -6.49986 h 3.50004 z"
       style="fill:#ffff00;stroke-width:0.0640733"
       id="path939" />
    <path
       id="path941"
       style="fill:#ffff00;stroke-width:0.0640733"
       d="m 136.58104,192.81777 v -6.49986 -3.50005 h -6.49986 a 3.4999998,3.4999998 0 0 0 -3.50004,3.50005 v 6.49986 h 3.50004 z" />
    <path
       d="m 62.581041,192.81777 v -6.49986 -3.50005 h 6.49986 a 3.4999998,3.4999998 0 0 1 3.500046,3.50005 v 6.49986 h -3.500046 z"
       style="fill:#ffff00;stroke-width:0.0640733"
       id="path943" />
    <path
       transform="scale(0.26458333)"
       d="M 103.75391 92.28125 A 37.795276 37.795276 0 0 1 65.957031 130.07617 L 65.957031 189.60352 L 73.517578 189.60352 L 73.517578 200.94141 L 65.957031 200.94141 L 65.957031 224.56445 L 73.517578 224.56445 L 73.517578 239.68164 L 65.957031 239.68164 L 65.957031 263.30469 L 73.517578 263.30469 L 73.517578 274.64258 L 65.957031 274.64258 L 65.957031 334.16992 A 37.795276 37.795276 0 0 1 103.75391 371.9668 L 163.28125 371.9668 L 163.28125 364.40625 L 174.61914 364.40625 L 174.61914 371.9668 L 198.24219 371.9668 L 198.24219 364.40625 L 213.35938 364.40625 L 213.35938 371.9668 L 236.98047 371.9668 L 236.98047 364.40625 L 248.32031 364.40625 L 248.32031 371.9668 L 307.84766 371.9668 A 37.795276 37.795276 0 0 1 345.64258 334.16992 L 345.64258 274.64258 L 338.08398 274.64258 L 338.08398 263.30469 L 345.64258 263.30469 L 345.64258 239.68164 L 338.08398 239.68164 L 338.08398 224.56445 L 345.64258 224.56445 L 345.64258 200.94141 L 338.08398 200.94141 L 338.08398 189.60352 L 345.64258 189.60352 L 345.64258 130.07617 A 37.795276 37.795276 0 0 1 307.84766 92.28125 L 248.32031 92.28125 L 248.32031 99.839844 L 236.98047 99.839844 L 236.98047 92.28125 L 213.35938 92.28125 L 213.35938 99.839844 L 198.24219 99.839844 L 198.24219 92.28125 L 174.61914 92.28125 L 174.61914 99.839844 L 163.28125 99.839844 L 163.28125 92.28125 L 103.75391 92.28125 z "
       style="fill:#ff0000;stroke-width:0.349521"
       id="rect1002" />
    <rect
       style="fill:#ff0000;stroke-width:0.0924774"
       id="rect1059"
       width="74"
       height="74"
       x="213.11995"
       y="-140.67845"
       transform="rotate(90)" />
    <rect
       style="fill:#ffff00;stroke-width:0.0833184"
       id="rect1061"
       width="4"
       height="2"
       x="101.67845"
       y="213.11995" />
    <rect
       y="285.11993"
       x="101.67845"
       height="2"
       width="4"
       id="rect1063"
       style="fill:#ffff00;stroke-width:0.0833184" />
    <rect
       style="fill:#ffff00;stroke-width:0.0635058"
       id="rect1065"
       width="2"
       height="4"
       x="66.678444"
       y="248.11995" />
    <rect
       y="248.11995"
       x="138.67845"
       height="4"
       width="2"
       id="rect1067"
       style="fill:#ffff00;stroke-width:0.0635058" />
    <rect
       y="213.11995"
       x="111.92845"
       height="2"
       width="3"
       id="rect1069"
       style="fill:#ffff00;stroke-width:0.0721558" />
    <rect
       style="fill:#ffff00;stroke-width:0.0721558"
       id="rect1071"
       width="3"
       height="2"
       x="92.428452"
       y="213.11995" />
    <g
       transform="translate(11.258252,176.00096)"
       id="g1077">
      <rect
         y="109.119"
         x="100.6702"
         height="2"
         width="3"
         id="rect1073"
         style="fill:#ffff00;stroke-width:0.0721558" />
      <rect
         style="fill:#ffff00;stroke-width:0.0721558"
         id="rect1075"
         width="3"
         height="2"
         x="81.170197"
         y="109.119" />
    </g>
    <g
       id="g1083"
       transform="rotate(90,10.048846,167.74861)">
      <rect
         style="fill:#ffff00;stroke-width:0.0721558"
         id="rect1079"
         width="3"
         height="2"
         x="100.6702"
         y="109.119" />
      <rect
         y="109.119"
         x="81.170197"
         height="2"
         width="3"
         id="rect1081"
         style="fill:#ffff00;stroke-width:0.0721558" />
    </g>
    <g
       transform="rotate(90,46.048849,203.74861)"
       id="g1089">
      <rect
         y="109.119"
         x="100.6702"
         height="2"
         width="3"
         id="rect1085"
         style="fill:#ffff00;stroke-width:0.0721558" />
      <rect
         style="fill:#ffff00;stroke-width:0.0721558"
         id="rect1087"
         width="3"
         height="2"
         x="81.170197"
         y="109.119" />
    </g>
    <path
       style="fill:#ffff00;stroke-width:0.11761"
       id="path1091"
       sodipodi:type="arc"
       sodipodi:cx="213.11995"
       sodipodi:cy="-140.67845"
       sodipodi:rx="10"
       sodipodi:ry="10"
       sodipodi:start="0"
       sodipodi:end="1.5707963"
       sodipodi:arc-type="slice"
       d="m 223.11995,-140.67845 a 10,10 0 0 1 -10,10 v -10 z"
       transform="rotate(90)" />
    <path
       d="m 76.678444,213.11995 a 10,10 0 0 1 -10,10 v -10 z"
       sodipodi:arc-type="slice"
       sodipodi:end="1.5707963"
       sodipodi:start="0"
       sodipodi:ry="10"
       sodipodi:rx="10"
       sodipodi:cy="213.11995"
       sodipodi:cx="66.678444"
       sodipodi:type="arc"
       id="path1093"
       style="fill:#ffff00;stroke-width:0.11761" />
    <path
       transform="scale(-1)"
       d="m -130.67845,-287.11993 a 10,10 0 0 1 -10,10 v -10 z"
       sodipodi:arc-type="slice"
       sodipodi:end="1.5707963"
       sodipodi:start="0"
       sodipodi:ry="10"
       sodipodi:rx="10"
       sodipodi:cy="-287.11993"
       sodipodi:cx="-140.67845"
       sodipodi:type="arc"
       id="path1095"
       style="fill:#ffff00;stroke-width:0.11761" />
    <path
       style="fill:#ffff00;stroke-width:0.11761"
       id="path1097"
       sodipodi:type="arc"
       sodipodi:cx="-287.11993"
       sodipodi:cy="66.678444"
       sodipodi:rx="10"
       sodipodi:ry="10"
       sodipodi:start="0"
       sodipodi:end="1.5707963"
       sodipodi:arc-type="slice"
       d="m -277.11993,66.678444 a 10,10 0 0 1 -10,10 v -10 z"
       transform="rotate(-90)" />
    <rect
       y="194.00917"
       x="46.119453"
       height="10"
       width="10"
       id="rect1142"
       style="fill:#ff0000;stroke-width:0.122733" />
    <path
       d="m 59.04027,213.53302 h -6.000152 -3.999754 v 3.99976 6.00015 h 3.999754 a 5.9999998,5.9999998 0 0 0 6.000152,-6.00015 z"
       style="fill:#00ff00;stroke-width:0.195145"
       id="path1150" />
  </g>
</svg>
